<?xml version="1.0" encoding="UTF-8" standalone="no"?> <!-- Created with Vectornator for iOS (http://vectornator.io/) --><!DOCTYPE svg PUBLIC "-//W3C//DTD SVG 1.1//EN" "http://www.w3.org/Graphics/SVG/1.1/DTD/svg11.dtd">
<svg height="100%" style="fill-rule:evenodd;clip-rule:evenodd;stroke-linecap:round;stroke-linejoin:round;" xmlns:xlink="http://www.w3.org/1999/xlink" xmlns="http://www.w3.org/2000/svg" xml:space="preserve" width="100%" xmlns:vectornator="http://vectornator.io" version="1.1" viewBox="0 0 1024 1024">
<metadata>
<vectornator:setting key="SnapToPoints" value="1"/>
<vectornator:setting key="OutlineMode" value="0"/>
<vectornator:setting key="RulersVisible" value="1"/>
<vectornator:setting key="CMYKEnabledKey" value="0"/>
<vectornator:setting key="SnapToEdges" value="1"/>
<vectornator:setting key="DisplayWhiteBackground" value="1"/>
<vectornator:setting key="ShowGrid" value="1"/>
<vectornator:setting key="SnapToGuides" value="1"/>
<vectornator:setting key="GridSpacing" value="36"/>
<vectornator:setting key="Units" value="Pixels"/>
<vectornator:setting key="DynamicGuides" value="1"/>
<vectornator:setting key="SnapToGrid" value="0"/>
</metadata>
<defs/>
<g id="progress" vectornator:layerName="progress" visibility="hidden">
<path stroke="#707070" stroke-width="42.16" d="M512+28.0823C779.26+28.0823+995.918+244.74+995.918+512C995.918+779.26+779.26+995.918+512+995.918C244.74+995.918+28.0823+779.26+28.0823+512C28.0823+245.592+243.359+29.4652+509.444+28.0889" fill="none" stroke-linecap="round" opacity="0" stroke-linejoin="round"/>
<path stroke="#707070" stroke-width="42.16" d="M512+28.0823C779.26+28.0823+995.918+244.74+995.918+512C995.918+779.26+779.26+995.918+512+995.918C244.74+995.918+28.0823+779.26+28.0823+512C28.0823+245.592+243.359+29.4652+509.444+28.0889" fill="none" stroke-linecap="round" opacity="0" stroke-linejoin="round"/>
<path stroke="#707070" stroke-width="42.16" d="M512+28.0823C779.26+28.0823+995.918+244.74+995.918+512C995.918+779.26+779.26+995.918+512+995.918C244.74+995.918+28.0823+779.26+28.0823+512C28.0823+245.592+243.359+29.4652+509.444+28.0889" fill="none" stroke-linecap="round" opacity="1" stroke-linejoin="round"/>
</g>
<g id="fwd" vectornator:layerName="fwd" visibility="hidden">
<path stroke="#707070" stroke-width="42.16" d="M877.76+559.421C877.76+761.425+714.004+925.181+512+925.181C309.996+925.181+146.24+761.425+146.24+559.421C146.24+357.417+309.996+193.661+512+193.661" fill="none" stroke-linecap="round" opacity="1" stroke-linejoin="round"/>
<path stroke="#707070" stroke-width="42.16" d="M639.315+193.661L557.179+146.24L475.043+98.819L475.043+193.661L475.043+288.503L557.179+241.082L639.315+193.661Z" fill="#707070" stroke-linecap="round" opacity="1" stroke-linejoin="round"/>
<g opacity="1">
<path d="M317.711+495.172L348.326+495.172L348.326+527.105L317.711+527.105L317.711+495.172ZM317.711+618.072L348.326+618.072L348.326+650.006L317.711+650.006L317.711+618.072Z" opacity="1" fill="#707070"/>
<path d="M445.738+655.719C420.934+655.719+402.94+648.907+391.759+635.284C380.577+621.661+374.986+605.084+374.986+585.553L402.525+585.553C403.697+599.127+406.236+608.99+410.143+615.143C416.979+626.178+429.332+631.695+447.203+631.695C461.07+631.695+472.203+627.984+480.602+620.562C489+613.141+493.199+603.57+493.199+591.852C493.199+577.398+488.78+567.291+479.942+561.529C471.104+555.768+458.824+552.887+443.102+552.887C441.344+552.887+439.562+552.911+437.755+552.96C435.948+553.009+434.117+553.082+432.262+553.18L432.262+529.889C434.996+530.182+437.291+530.377+439.146+530.475C441.002+530.572+443.004+530.621+445.152+530.621C455.016+530.621+463.121+529.059+469.469+525.934C480.602+520.465+486.168+510.699+486.168+496.637C486.168+486.187+482.457+478.131+475.035+472.467C467.613+466.803+458.971+463.971+449.107+463.971C431.529+463.971+419.371+469.83+412.633+481.549C408.922+487.994+406.822+497.174+406.334+509.088L380.26+509.088C380.26+493.463+383.385+480.182+389.635+469.244C400.377+449.713+419.273+439.947+446.324+439.947C467.711+439.947+484.264+444.708+495.982+454.229C507.701+463.751+513.561+477.545+513.561+495.611C513.561+508.502+510.094+518.951+503.16+526.959C498.863+531.939+493.297+535.846+486.461+538.678C497.496+541.705+506.114+547.54+512.315+556.183C518.517+564.825+521.617+575.396+521.617+587.896C521.617+607.916+515.025+624.225+501.842+636.822C488.658+649.42+469.957+655.719+445.738+655.719Z" opacity="1" fill="#707070"/>
<path d="M615.807+440.24C642.955+440.24+662.584+451.422+674.693+473.785C684.068+491.07+688.756+514.752+688.756+544.83C688.756+573.346+684.508+596.93+676.012+615.582C663.707+642.34+643.59+655.719+615.66+655.719C590.465+655.719+571.715+644.781+559.41+622.906C549.156+604.645+544.029+580.133+544.029+549.371C544.029+525.543+547.105+505.084+553.258+487.994C564.781+456.158+585.631+440.24+615.807+440.24ZM615.514+631.695C629.186+631.695+640.074+625.641+648.18+613.531C656.285+601.422+660.338+578.863+660.338+545.855C660.338+522.027+657.408+502.423+651.549+487.042C645.689+471.661+634.313+463.971+617.418+463.971C601.891+463.971+590.538+471.271+583.36+485.87C576.183+500.47+572.594+521.979+572.594+550.396C572.594+571.783+574.889+588.971+579.479+601.959C586.51+621.783+598.521+631.695+615.514+631.695Z" opacity="1" fill="#707070"/>
</g>
<path d="M684+376.916L684+352.307L747.867+352.307L747.867+288L772.916+288L772.916+352.307L836.783+352.307L836.783+376.916L772.916+376.916L772.916+441.076L747.867+441.076L747.867+376.916L684+376.916Z" opacity="1" fill="#707070"/>
</g>
<g id="fwd hover" vectornator:layerName="fwd hover" visibility="hidden">
<path stroke="#1ed394" stroke-width="42.16" d="M877.76+559.421C877.76+761.425+714.004+925.181+512+925.181C309.996+925.181+146.24+761.425+146.24+559.421C146.24+357.417+309.996+193.661+512+193.661" fill="none" stroke-linecap="round" opacity="1" stroke-linejoin="round"/>
<path stroke="#1ed394" stroke-width="42.16" d="M639.315+193.661L557.179+146.24L475.043+98.819L475.043+193.661L475.043+288.503L557.179+241.082L639.315+193.661Z" fill="#1ed394" stroke-linecap="round" opacity="1" stroke-linejoin="round"/>
<g opacity="1">
<path d="M317.711+495.172L348.326+495.172L348.326+527.105L317.711+527.105L317.711+495.172ZM317.711+618.072L348.326+618.072L348.326+650.006L317.711+650.006L317.711+618.072Z" opacity="1" fill="#1ed394"/>
<path d="M445.738+655.719C420.934+655.719+402.94+648.907+391.759+635.284C380.577+621.661+374.986+605.084+374.986+585.553L402.525+585.553C403.697+599.127+406.236+608.99+410.143+615.143C416.979+626.178+429.332+631.695+447.203+631.695C461.07+631.695+472.203+627.984+480.602+620.562C489+613.141+493.199+603.57+493.199+591.852C493.199+577.398+488.78+567.291+479.942+561.529C471.104+555.768+458.824+552.887+443.102+552.887C441.344+552.887+439.562+552.911+437.755+552.96C435.948+553.009+434.117+553.082+432.262+553.18L432.262+529.889C434.996+530.182+437.291+530.377+439.146+530.475C441.002+530.572+443.004+530.621+445.152+530.621C455.016+530.621+463.121+529.059+469.469+525.934C480.602+520.465+486.168+510.699+486.168+496.637C486.168+486.187+482.457+478.131+475.035+472.467C467.613+466.803+458.971+463.971+449.107+463.971C431.529+463.971+419.371+469.83+412.633+481.549C408.922+487.994+406.822+497.174+406.334+509.088L380.26+509.088C380.26+493.463+383.385+480.182+389.635+469.244C400.377+449.713+419.273+439.947+446.324+439.947C467.711+439.947+484.264+444.708+495.982+454.229C507.701+463.751+513.561+477.545+513.561+495.611C513.561+508.502+510.094+518.951+503.16+526.959C498.863+531.939+493.297+535.846+486.461+538.678C497.496+541.705+506.114+547.54+512.315+556.183C518.517+564.825+521.617+575.396+521.617+587.896C521.617+607.916+515.025+624.225+501.842+636.822C488.658+649.42+469.957+655.719+445.738+655.719Z" opacity="1" fill="#1ed394"/>
<path d="M615.807+440.24C642.955+440.24+662.584+451.422+674.693+473.785C684.068+491.07+688.756+514.752+688.756+544.83C688.756+573.346+684.508+596.93+676.012+615.582C663.707+642.34+643.59+655.719+615.66+655.719C590.465+655.719+571.715+644.781+559.41+622.906C549.156+604.645+544.029+580.133+544.029+549.371C544.029+525.543+547.105+505.084+553.258+487.994C564.781+456.158+585.631+440.24+615.807+440.24ZM615.514+631.695C629.186+631.695+640.074+625.641+648.18+613.531C656.285+601.422+660.338+578.863+660.338+545.855C660.338+522.027+657.408+502.423+651.549+487.042C645.689+471.661+634.313+463.971+617.418+463.971C601.891+463.971+590.538+471.271+583.36+485.87C576.183+500.47+572.594+521.979+572.594+550.396C572.594+571.783+574.889+588.971+579.479+601.959C586.51+621.783+598.521+631.695+615.514+631.695Z" opacity="1" fill="#1ed394"/>
</g>
<path d="M684+376.916L684+352.307L747.867+352.307L747.867+288L772.916+288L772.916+352.307L836.783+352.307L836.783+376.916L772.916+376.916L772.916+441.076L747.867+441.076L747.867+376.916L684+376.916Z" opacity="1" fill="#1ed394"/>
</g>
<g id="rwd" vectornator:layerName="rwd" visibility="hidden">
<path stroke="#707070" stroke-width="42.16" d="M146.24+559.421C146.24+761.425+309.996+925.181+512+925.181C714.004+925.181+877.76+761.425+877.76+559.421C877.76+357.417+714.004+193.661+512+193.661" fill="none" stroke-linecap="round" opacity="1" stroke-linejoin="round"/>
<path stroke="#707070" stroke-width="42.16" d="M384.685+193.661L466.821+146.24L548.957+98.819L548.957+193.661L548.957+288.503L466.821+241.082L384.685+193.661Z" fill="#707070" stroke-linecap="round" opacity="1" stroke-linejoin="round"/>
<g opacity="1">
<path d="M315.731+495.593L346.347+495.593L346.347+527.526L315.731+527.526L315.731+495.593ZM315.731+618.493L346.347+618.493L346.347+650.427L315.731+650.427L315.731+618.493Z" opacity="1" fill="#707070"/>
<path d="M443.759+656.14C418.954+656.14+400.961+649.328+389.779+635.705C378.598+622.082+373.007+605.505+373.007+585.974L400.546+585.974C401.718+599.548+404.257+609.411+408.163+615.564C414.999+626.599+427.353+632.116+445.224+632.116C459.091+632.116+470.224+628.405+478.622+620.983C487.021+613.562+491.22+603.991+491.22+592.273C491.22+577.819+486.801+567.712+477.963+561.95C469.125+556.189+456.845+553.308+441.122+553.308C439.364+553.308+437.582+553.332+435.775+553.381C433.969+553.43+432.138+553.503+430.282+553.601L430.282+530.31C433.017+530.603+435.312+530.798+437.167+530.896C439.022+530.993+441.024+531.042+443.173+531.042C453.036+531.042+461.142+529.48+467.489+526.355C478.622+520.886+484.188+511.12+484.188+497.058C484.188+486.608+480.478+478.552+473.056+472.888C465.634+467.224+456.991+464.392+447.128+464.392C429.55+464.392+417.392+470.251+410.653+481.97C406.942+488.415+404.843+497.595+404.354+509.509L378.28+509.509C378.28+493.884+381.405+480.603+387.655+469.665C398.397+450.134+417.294+440.368+444.345+440.368C465.731+440.368+482.284+445.129+494.003+454.65C505.722+464.172+511.581+477.966+511.581+496.032C511.581+508.923+508.114+519.372+501.181+527.38C496.884+532.36+491.317+536.267+484.481+539.099C495.517+542.126+504.135+547.961+510.336+556.604C516.537+565.246+519.638+575.817+519.638+588.317C519.638+608.337+513.046+624.646+499.862+637.243C486.679+649.841+467.978+656.14+443.759+656.14Z" opacity="1" fill="#707070"/>
<path d="M613.827+440.661C640.976+440.661+660.604+451.843+672.714+474.206C682.089+491.491+686.776+515.173+686.776+545.251C686.776+573.767+682.528+597.351+674.032+616.003C661.728+642.761+641.61+656.14+613.681+656.14C588.485+656.14+569.735+645.202+557.431+623.327C547.177+605.066+542.05+580.554+542.05+549.792C542.05+525.964+545.126+505.505+551.278+488.415C562.802+456.579+583.651+440.661+613.827+440.661ZM613.534+632.116C627.206+632.116+638.095+626.062+646.2+613.952C654.306+601.843+658.358+579.284+658.358+546.276C658.358+522.448+655.429+502.844+649.569+487.463C643.71+472.082+632.333+464.392+615.438+464.392C599.911+464.392+588.559+471.691+581.381+486.291C574.203+500.891+570.614+522.4+570.614+550.817C570.614+572.204+572.909+589.392+577.499+602.38C584.53+622.204+596.542+632.116+613.534+632.116Z" opacity="1" fill="#707070"/>
</g>
<path d="M268.916+360L332.783+360L332.783+384.609L268.916+384.609L243.867+384.609L180+384.609L180+360L243.867+360" opacity="1" fill="#707070"/>
</g>
<g id="rwd hover" vectornator:layerName="rwd hover" visibility="hidden">
<path stroke="#1ed394" stroke-width="42.16" d="M146.24+559.421C146.24+761.425+309.996+925.181+512+925.181C714.004+925.181+877.76+761.425+877.76+559.421C877.76+357.417+714.004+193.661+512+193.661" fill="none" stroke-linecap="round" opacity="1" stroke-linejoin="round"/>
<path stroke="#1ed394" stroke-width="42.16" d="M384.685+193.661L466.821+146.24L548.957+98.819L548.957+193.661L548.957+288.503L466.821+241.082L384.685+193.661Z" fill="#1ed394" stroke-linecap="round" opacity="1" stroke-linejoin="round"/>
<g opacity="1">
<path d="M315.731+495.593L346.347+495.593L346.347+527.526L315.731+527.526L315.731+495.593ZM315.731+618.493L346.347+618.493L346.347+650.427L315.731+650.427L315.731+618.493Z" opacity="1" fill="#0ed394"/>
<path d="M443.759+656.14C418.954+656.14+400.961+649.328+389.779+635.705C378.598+622.082+373.007+605.505+373.007+585.974L400.546+585.974C401.718+599.548+404.257+609.411+408.163+615.564C414.999+626.599+427.353+632.116+445.224+632.116C459.091+632.116+470.224+628.405+478.622+620.983C487.021+613.562+491.22+603.991+491.22+592.273C491.22+577.819+486.801+567.712+477.963+561.95C469.125+556.189+456.845+553.308+441.122+553.308C439.364+553.308+437.582+553.332+435.775+553.381C433.969+553.43+432.138+553.503+430.282+553.601L430.282+530.31C433.017+530.603+435.312+530.798+437.167+530.896C439.022+530.993+441.024+531.042+443.173+531.042C453.036+531.042+461.142+529.48+467.489+526.355C478.622+520.886+484.188+511.12+484.188+497.058C484.188+486.608+480.478+478.552+473.056+472.888C465.634+467.224+456.991+464.392+447.128+464.392C429.55+464.392+417.392+470.251+410.653+481.97C406.942+488.415+404.843+497.595+404.354+509.509L378.28+509.509C378.28+493.884+381.405+480.603+387.655+469.665C398.397+450.134+417.294+440.368+444.345+440.368C465.731+440.368+482.284+445.129+494.003+454.65C505.722+464.172+511.581+477.966+511.581+496.032C511.581+508.923+508.114+519.372+501.181+527.38C496.884+532.36+491.317+536.267+484.481+539.099C495.517+542.126+504.135+547.961+510.336+556.604C516.537+565.246+519.638+575.817+519.638+588.317C519.638+608.337+513.046+624.646+499.862+637.243C486.679+649.841+467.978+656.14+443.759+656.14Z" opacity="1" fill="#0ed394"/>
<path d="M613.827+440.661C640.976+440.661+660.604+451.843+672.714+474.206C682.089+491.491+686.776+515.173+686.776+545.251C686.776+573.767+682.528+597.351+674.032+616.003C661.728+642.761+641.61+656.14+613.681+656.14C588.485+656.14+569.735+645.202+557.431+623.327C547.177+605.066+542.05+580.554+542.05+549.792C542.05+525.964+545.126+505.505+551.278+488.415C562.802+456.579+583.651+440.661+613.827+440.661ZM613.534+632.116C627.206+632.116+638.095+626.062+646.2+613.952C654.306+601.843+658.358+579.284+658.358+546.276C658.358+522.448+655.429+502.844+649.569+487.463C643.71+472.082+632.333+464.392+615.438+464.392C599.911+464.392+588.559+471.691+581.381+486.291C574.203+500.891+570.614+522.4+570.614+550.817C570.614+572.204+572.909+589.392+577.499+602.38C584.53+622.204+596.542+632.116+613.534+632.116Z" opacity="1" fill="#0ed394"/>
</g>
<path d="M268.916+360L332.783+360L332.783+384.609L268.916+384.609L243.867+384.609L180+384.609L180+360L243.867+360" opacity="1" fill="#1ed394"/>
</g>
<g id="next round" vectornator:layerName="next round" visibility="hidden">
<path stroke="#707070" stroke-width="36.57" d="M781.776+541.27L526.849+688.453L271.922+835.635C243.922+851.801+221.224+838.696+221.224+806.365L221.224+512L221.224+217.635C221.224+185.304+243.922+172.199+271.922+188.365L526.849+335.547L781.776+482.73C809.776+498.895+809.776+525.105+781.776+541.27Z" fill="#707070" stroke-linecap="round" opacity="1" stroke-linejoin="round"/>
<path stroke="#707070" stroke-width="36.57" d="M802.037+203.867L802.037+828" fill="#707070" stroke-linecap="round" opacity="1" stroke-linejoin="round"/>
</g>
<g id="previous round" vectornator:layerName="previous round" visibility="hidden">
<path stroke="#707070" stroke-width="36.57" d="M242.224+541.27L497.151+688.453L752.078+835.635C780.078+851.801+802.776+838.696+802.776+806.365L802.776+512L802.776+217.635C802.776+185.304+780.078+172.199+752.078+188.365L497.151+335.547L242.224+482.73C214.224+498.895+214.224+525.105+242.224+541.27Z" fill="#707070" stroke-linecap="round" opacity="1" stroke-linejoin="round"/>
<path stroke="#707070" stroke-width="36.57" d="M221.963+203.867L221.963+828" fill="#707070" stroke-linecap="round" opacity="1" stroke-linejoin="round"/>
</g>
<g id="play" vectornator:layerName="play" visibility="hidden">
<path d="M878.125+552.465L525.7+755.938L173.275+959.41C134.567+981.759+103.187+963.642+103.187+918.945L103.188+512L103.188+105.055C103.188+60.3582+134.567+42.2414+173.275+64.5896L525.7+268.062L878.125+471.535C916.833+493.883+916.833+530.117+878.125+552.465Z" opacity="1" fill="#707070"/>
</g>
<g id="pause" vectornator:layerName="pause" visibility="hidden">
<path d="M312.212+59.2092L353.909+59.0012C400.808+58.7672+439.038+92.756+439.299+134.917L443.992+895.027C444.252+937.189+406.444+971.557+359.545+971.791L317.848+971.999C270.949+972.233+232.719+938.244+232.458+896.083L227.765+135.973C227.505+93.8115+265.313+59.4433+312.212+59.2092Z" opacity="1" fill="#707070"/>
<path d="M664.068+59.2092L705.574+59.0012C752.258+58.7672+790.313+92.756+790.572+134.917L795.244+895.027C795.503+937.189+757.868+971.557+711.184+971.791L669.678+971.999C622.994+972.233+584.939+938.244+584.68+896.083L580.008+135.973C579.749+93.8115+617.384+59.4433+664.068+59.2092Z" opacity="1" fill="#707070"/>
</g>
<g id="pause hover" vectornator:layerName="pause hover">
<path d="M312.212+59.2092L353.909+59.0012C400.808+58.7672+439.038+92.756+439.299+134.917L443.992+895.027C444.252+937.189+406.444+971.557+359.545+971.791L317.848+971.999C270.949+972.233+232.719+938.244+232.458+896.083L227.765+135.973C227.505+93.8115+265.313+59.4433+312.212+59.2092Z" opacity="1" fill="#1ed394"/>
<path d="M664.068+59.2092L705.574+59.0012C752.258+58.7672+790.313+92.756+790.572+134.917L795.244+895.027C795.503+937.189+757.868+971.557+711.184+971.791L669.678+971.999C622.994+972.233+584.939+938.244+584.68+896.083L580.008+135.973C579.749+93.8115+617.384+59.4433+664.068+59.2092Z" opacity="1" fill="#1ed394"/>
</g>
<g id="restart" vectornator:layerName="restart" visibility="hidden">
<path stroke="#707070" stroke-width="42.16" d="M897.07+633.034C830.225+844.978+604.222+962.604+392.278+895.759C258.189+853.469+161.853+747.474+126.096+621.639" fill="none" stroke-linecap="round" opacity="1" stroke-linejoin="round"/>
<path stroke="#707070" stroke-width="42.16" d="M129.553+390.966C196.398+179.022+422.401+61.3961+634.345+128.241C764.069+169.155+858.459+269.693+896.843+390.138" fill="none" stroke-linecap="round" opacity="1" stroke-linejoin="round"/>
<path stroke="#707070" stroke-width="42.16" d="M177.428+540.596L116.684+437.408L37.757+540.703" fill="none" stroke-linecap="round" opacity="0" stroke-linejoin="round"/>
<path stroke="#707070" stroke-width="42.16" d="M851.712+487.412L906.285+593.993L991.149+495.518" fill="none" stroke-linecap="round" opacity="0" stroke-linejoin="round"/>
<path stroke="#707070" stroke-width="42.16" d="M476.429+765.445C336.455+745.075+239.497+615.091+259.867+475.117C272.754+386.562+329.515+315.224+404.922+279.92" fill="none" stroke-linecap="round" opacity="1" stroke-linejoin="round"/>
<path stroke="#707070" stroke-width="42.16" d="M550.194+258.555C690.168+278.925+787.126+408.909+766.756+548.883C754.288+634.556+700.757+704.114+629.004+740.518" fill="none" stroke-linecap="round" opacity="1" stroke-linejoin="round"/>
<path stroke="#707070" stroke-width="42.16" d="M374.212+349.654L404.979+279.929L322.274+277.507" fill="none" stroke-linecap="round" opacity="1" stroke-linejoin="round"/>
<path stroke="#707070" stroke-width="42.16" d="M654.112+673.059L626.156+743.958L708.892+743.073" fill="none" stroke-linecap="round" opacity="1" stroke-linejoin="round"/>
<path stroke="#707070" stroke-width="42.16" d="M474.205+635.756C405.881+614.207+367.962+541.351+389.511+473.026C411.06+404.702+483.916+366.783+552.241+388.332C620.565+409.881+658.484+482.737+636.935+551.062C615.386+619.386+542.53+657.305+474.205+635.756Z" fill="#707070" stroke-linecap="round" opacity="0" stroke-linejoin="round"/>
<path stroke="#707070" stroke-width="42.16" d="M894.805+534.632C880.906+530.248+873.192+515.427+877.576+501.528C881.959+487.628+896.781+479.914+910.68+484.298C924.58+488.682+932.294+503.503+927.91+517.402C923.526+531.302+908.705+539.016+894.805+534.632Z" fill="#707070" stroke-linecap="round" opacity="1" stroke-linejoin="round"/>
<path stroke="#707070" stroke-width="42.16" d="M113.32+530.169C99.4204+525.785+91.7065+510.964+96.0902+497.064C100.474+483.165+115.295+475.451+129.195+479.835C143.094+484.219+150.808+499.04+146.424+512.939C142.041+526.839+127.219+534.553+113.32+530.169Z" fill="#707070" stroke-linecap="round" opacity="1" stroke-linejoin="round"/>
</g>
</svg>
